/* XPM */
static char * LOGO_icon32_xpm[] = {
"16 16 98 2",
"  	c None",
". 	c #FBFBFA",
"+ 	c #F5F3EF",
"@ 	c #E6DDD1",
"# 	c #E4DBCF",
"$ 	c #FFFFFF",
"% 	c #FCFBFA",
"& 	c #F8F5F2",
"* 	c #F3EFEA",
"= 	c #F0EAE4",
"- 	c #EBE4DB",
"; 	c #E3D9CC",
"> 	c #D8CAB8",
", 	c #D1C1AD",
"' 	c #E6E0D7",
") 	c #FAFAF8",
"! 	c #E8E8E8",
"~ 	c #EEEBE8",
"{ 	c #ECE5DE",
"] 	c #E1D6C9",
"^ 	c #DED2C3",
"/ 	c #DBCDBD",
"( 	c #D7CAB8",
"_ 	c #D7CBBC",
": 	c #E0DAD2",
"< 	c #EBE8E6",
"[ 	c #FBFAF9",
"} 	c #C5C5C4",
"| 	c #CAC8C6",
"1 	c #DDD8D1",
"2 	c #E5DDD5",
"3 	c #E3DCD3",
"4 	c #DFD8CF",
"5 	c #DCD7D0",
"6 	c #DDD9D4",
"7 	c #DFDDDB",
"8 	c #E8E5E2",
"9 	c #F8E5D2",
"0 	c #FDD6B5",
"a 	c #FCFCFC",
"b 	c #776153",
"c 	c #BEBEC2",
"d 	c #FBF2C4",
"e 	c #FCEA91",
"f 	c #FCE077",
"g 	c #FCD564",
"h 	c #FCCE66",
"i 	c #FCC45D",
"j 	c #FBB956",
"k 	c #F7B768",
"l 	c #F7CA9D",
"m 	c #FCECDE",
"n 	c #FDFDFD",
"o 	c #F0EEEA",
"p 	c #FCF5C1",
"q 	c #FBE7A5",
"r 	c #FBE7AA",
"s 	c #F2E0A6",
"t 	c #ECDAA7",
"u 	c #E6D4AE",
"v 	c #E2D6C0",
"w 	c #E9DCCA",
"x 	c #F5E0C7",
"y 	c #FDFCF4",
"z 	c #F5DDAE",
"A 	c #FAE0AE",
"B 	c #F9DDA9",
"C 	c #FAE4B6",
"D 	c #FCEEC4",
"E 	c #F3D3BC",
"F 	c #E9A791",
"G 	c #F7D29A",
"H 	c #F1C88D",
"I 	c #FCEBC0",
"J 	c #FBE9BC",
"K 	c #FAD8A4",
"L 	c #FDF0C7",
"M 	c #DB7359",
"N 	c #E57024",
"O 	c #D09E85",
"P 	c #CC8165",
"Q 	c #FCF6D2",
"R 	c #FBECC1",
"S 	c #F8D59D",
"T 	c #F9D7A1",
"U 	c #F5CFA9",
"V 	c #DEAD95",
"W 	c #5B2F29",
"X 	c #813731",
"Y 	c #FCF8D7",
"Z 	c #FBEBBF",
"` 	c #FAEDC4",
" .	c #FAEDC6",
"..	c #F9F0CA",
"+.	c #F1E8C6",
"@.	c #E5D8B7",
"#.	c #FBF7D5",
"$.	c #FAF7D7",
"                                ",
"                            .   ",
"                        + @ #   ",
"        $ % & * = - ; > , ' )   ",
"    ! ~ { # ] ^ / ( _ : < [     ",
"  } | 1 2 3 4 5 6 7 8 9 0       ",
"a b c d e f g h i j k l m       ",
"n o p q r s t u v w x           ",
"  y z A B C D E F G H           ",
"      I J K L M N O P           ",
"      Q R S T U V W X           ",
"      Y Z I `  ...+.@.          ",
"      #.$.#.                    ",
"                                ",
"                                ",
"                                "};
