/* XPM */
static char * LOGO_icon32_xpm[] = {
"32 32 332 2",
"  	c None",
". 	c #FFFFFF",
"+ 	c #F9F6F3",
"@ 	c #F8F5F2",
"# 	c #DACDBC",
"$ 	c #EEE8E0",
"% 	c #FDFCFB",
"& 	c #EEE7E0",
"* 	c #DBCEBE",
"= 	c #CBB7A0",
"- 	c #D4C5B2",
"; 	c #FFFEFE",
"> 	c #F6F3EF",
", 	c #EFE9E2",
"' 	c #E6DDD2",
") 	c #DACDBD",
"! 	c #CFBDA8",
"~ 	c #CDBAA4",
"{ 	c #CCB9A2",
"] 	c #DED3C5",
"^ 	c #F8F7F6",
"/ 	c #FCFAF9",
"( 	c #F2EDE7",
"_ 	c #EBE3DA",
": 	c #E7DFD3",
"< 	c #E3D9CC",
"[ 	c #DFD3C5",
"} 	c #D6C8B6",
"| 	c #D5C6B3",
"1 	c #D3C3B0",
"2 	c #D2C1AD",
"3 	c #D0BFAA",
"4 	c #CEBDA8",
"5 	c #D9CDBE",
"6 	c #EDEAE7",
"7 	c #F5F4F3",
"8 	c #FBFBFB",
"9 	c #F0F0F0",
"0 	c #EFEEED",
"a 	c #F0ECE8",
"b 	c #EAE3DA",
"c 	c #E5DCD0",
"d 	c #E3DACD",
"e 	c #E2D7CA",
"f 	c #E0D5C7",
"g 	c #DFD3C4",
"h 	c #DDD1C1",
"i 	c #DACCBC",
"j 	c #D8CAB9",
"k 	c #D4C4B1",
"l 	c #DBD1C4",
"m 	c #E9E6E3",
"n 	c #EFEFEF",
"o 	c #F4F3F1",
"p 	c #FEFEFE",
"q 	c #FAFAFA",
"r 	c #DADADA",
"s 	c #CFCECE",
"t 	c #E4E2DD",
"u 	c #EAE3D9",
"v 	c #E8E0D6",
"w 	c #E7DED3",
"x 	c #D6C9B7",
"y 	c #D8CEC0",
"z 	c #DDD8D1",
"A 	c #E5E5E4",
"B 	c #E9E9E9",
"C 	c #EBEBEA",
"D 	c #F9F9F9",
"E 	c #F6F6F6",
"F 	c #BABABA",
"G 	c #C3C2C2",
"H 	c #D3D0CB",
"I 	c #D2CFCA",
"J 	c #D7D4CF",
"K 	c #DDD9D3",
"L 	c #E3DDD5",
"M 	c #E5DED4",
"N 	c #E4DBCE",
"O 	c #D9D0C5",
"P 	c #D8D1C9",
"Q 	c #D8D5D1",
"R 	c #DCDCDB",
"S 	c #DFDFDF",
"T 	c #E2E2E2",
"U 	c #E9E9E8",
"V 	c #F7F7F7",
"W 	c #FFFEFD",
"X 	c #FEDCC2",
"Y 	c #FFFAF5",
"Z 	c #BCBCBC",
"` 	c #ACABAC",
" .	c #A9A9A8",
"..	c #CBC8C4",
"+.	c #E1DCD5",
"@.	c #E8E1D8",
"#.	c #E6DDD3",
"$.	c #E2DBD2",
"%.	c #DAD6D1",
"&.	c #D6D4D0",
"*.	c #D5D4D1",
"=.	c #D6D5D3",
"-.	c #D8D7D6",
";.	c #DBDAD9",
">.	c #E1E1E0",
",.	c #EAEAEA",
"'.	c #F2F2F2",
").	c #FCFBF9",
"!.	c #FEECD8",
"~.	c #FDCD9F",
"{.	c #FCA254",
"].	c #FDD4B3",
"^.	c #706767",
"/.	c #6D4D2E",
"(.	c #393F5E",
"_.	c #F4F0EB",
":.	c #F8F6F3",
"<.	c #FCFBFA",
"[.	c #FFFCF1",
"}.	c #FEF5D3",
"|.	c #FEEDB5",
"1.	c #FDE9AA",
"2.	c #FDE5A2",
"3.	c #FDE19D",
"4.	c #FDDE9A",
"5.	c #FDD890",
"6.	c #FDD590",
"7.	c #FDCE83",
"8.	c #FCC475",
"9.	c #FCB75E",
"0.	c #FBA43E",
"a.	c #FB9C36",
"b.	c #FAA757",
"c.	c #FADDC3",
"d.	c #787275",
"e.	c #775B46",
"f.	c #D2D2D5",
"g.	c #FFFFFB",
"h.	c #FEF5B9",
"i.	c #FCEA76",
"j.	c #FBDC3A",
"k.	c #FBD427",
"l.	c #FBD028",
"m.	c #FBCB29",
"n.	c #FBC72B",
"o.	c #FBC32C",
"p.	c #FBBE2D",
"q.	c #FBBA2E",
"r.	c #FBB52F",
"s.	c #FBB130",
"t.	c #FBAD31",
"u.	c #F8AF48",
"v.	c #F5B86A",
"w.	c #F2C998",
"x.	c #F1E1D0",
"y.	c #F5EADF",
"z.	c #CFCDCA",
"A.	c #F9F7F4",
"B.	c #FEFCDB",
"C.	c #FDF397",
"D.	c #FDF197",
"E.	c #FDEF98",
"F.	c #FDEB8B",
"G.	c #FBE480",
"H.	c #F2D870",
"I.	c #E9CE73",
"J.	c #DEC988",
"K.	c #E0CA8E",
"L.	c #E2CA90",
"M.	c #E3CC9B",
"N.	c #E2D0AD",
"O.	c #E1D4BD",
"P.	c #E1DDD8",
"Q.	c #E4E4E4",
"R.	c #E7E7E7",
"S.	c #EEE6DE",
"T.	c #F9F2EB",
"U.	c #FCFCFC",
"V.	c #FFFEF3",
"W.	c #FFFCE0",
"X.	c #F8E2BD",
"Y.	c #FADCAE",
"Z.	c #F9DDB2",
"`.	c #FADEB7",
" +	c #FBE6C8",
".+	c #FCEED8",
"++	c #FDF5E6",
"@+	c #FCF8F0",
"#+	c #F3EDE0",
"$+	c #E9E2CF",
"%+	c #E7DECC",
"&+	c #E4DCCC",
"*+	c #E6DDCC",
"=+	c #ECE3D5",
"-+	c #F0E8DC",
";+	c #F7EDE0",
">+	c #FCF2E4",
",+	c #FAF8F6",
"'+	c #FFFEF0",
")+	c #F5D7A5",
"!+	c #F9DDAA",
"~+	c #F9DCA8",
"{+	c #F9DBA5",
"]+	c #F9DAA5",
"^+	c #FADEAC",
"/+	c #FAE3B3",
"(+	c #FBE7B9",
"_+	c #FCEBC0",
":+	c #FCF1CA",
"<+	c #FDF6D6",
"[+	c #F8D7A4",
"}+	c #F8D29B",
"|+	c #F7CC8F",
"1+	c #F4C88B",
"2+	c #FEFDFD",
"3+	c #F5DBAC",
"4+	c #FAE3B4",
"5+	c #FAE2B1",
"6+	c #FAE0AF",
"7+	c #FAE0AD",
"8+	c #FBE4B4",
"9+	c #FCECC2",
"0+	c #FCF1C9",
"a+	c #FDF5CF",
"b+	c #FDF6DF",
"c+	c #DB7967",
"d+	c #DC6433",
"e+	c #E49884",
"f+	c #F9D8A6",
"g+	c #F8D299",
"h+	c #F5CF95",
"i+	c #F0C890",
"j+	c #F2DEB2",
"k+	c #FBE9BD",
"l+	c #FBE8BB",
"m+	c #FBE6B9",
"n+	c #FBE5B6",
"o+	c #FAE4B5",
"p+	c #F9DFAC",
"q+	c #FEF8D5",
"r+	c #FFFFDF",
"s+	c #E8ADA0",
"t+	c #D54F27",
"u+	c #E87522",
"v+	c #E77624",
"w+	c #F3D0BB",
"x+	c #F9D8A2",
"y+	c #F7D69F",
"z+	c #F0CB95",
"A+	c #F2E3B8",
"B+	c #FBEEC5",
"C+	c #FCEDC4",
"D+	c #FBEBC0",
"E+	c #FADFAD",
"F+	c #F5C382",
"G+	c #EAB1A0",
"H+	c #CF4428",
"I+	c #DA5925",
"J+	c #D6542D",
"K+	c #BD8C7D",
"L+	c #934035",
"M+	c #A2443A",
"N+	c #A12D2B",
"O+	c #AA1F24",
"P+	c #F4E5C1",
"Q+	c #FBF2CC",
"R+	c #FDF3CD",
"S+	c #FDF2CB",
"T+	c #FBEDC2",
"U+	c #F8D196",
"V+	c #F7CF94",
"W+	c #F7D197",
"X+	c #F9DCAF",
"Y+	c #E49D8E",
"Z+	c #D97160",
"`+	c #D09E95",
" @	c #440F0F",
".@	c #611717",
"+@	c #7E2A28",
"@@	c #923D36",
"#@	c #7D1F24",
"$@	c #F5ECC5",
"%@	c #FBF6D3",
"&@	c #FEF9D6",
"*@	c #FDF6D2",
"=@	c #FADEAB",
"-@	c #F9D9A4",
";@	c #F9DBA6",
">@	c #F9DCA9",
",@	c #FAE0AE",
"'@	c #FAE2B2",
")@	c #F4E0B8",
"!@	c #BEA688",
"~@	c #7B6454",
"{@	c #5E3630",
"]@	c #5F1B1D",
"^@	c #77191D",
"/@	c #971E23",
"(@	c #FAF7D6",
"_@	c #FCECC0",
":@	c #FAE4B4",
"<@	c #FBE5B7",
"[@	c #FBE8BC",
"}@	c #FBEABE",
"|@	c #FCECC1",
"1@	c #FCEFC6",
"2@	c #F9EDC6",
"3@	c #E6D9B7",
"4@	c #D4C6A7",
"5@	c #C9BB9F",
"6@	c #B89F87",
"7@	c #F9F5D4",
"8@	c #FEF6D1",
"9@	c #FCEEC4",
"0@	c #FCEFC7",
"a@	c #FBEFC9",
"b@	c #F9EFC9",
"c@	c #F9EFCA",
"d@	c #F7EDC8",
"e@	c #F6EDC8",
"f@	c #F6EEC9",
"g@	c #F7EFCB",
"h@	c #F8F0CD",
"i@	c #FAF1CE",
"j@	c #F8EFCC",
"k@	c #F5EECA",
"l@	c #F7EFCA",
"m@	c #F7EDC9",
"n@	c #F5F0CE",
"o@	c #F7F1D0",
"p@	c #F9F4D3",
"q@	c #F9F6D3",
"                                                                ",
"                                                                ",
"                                                                ",
"                                                        . +     ",
"                                                  . . @ # $     ",
"                                            . . % & * = - ;     ",
"                    . . . . . . . . . % > , ' ) ! ~ { ] ^       ",
"            . . . . / > ( $ _ : < [ ) } | 1 2 3 4 5 6 7 .       ",
"        . 8 9 0 a b c d e f g h * i j } | 1 k l m n o p         ",
"      q r s t u v w c d e f g h * i j x y z A B C D .           ",
"    E F G H I J K L M N e f g l O P Q R S T U V W X Y           ",
"  . Z `  ...+.@.v #.$.+.%.&.*.=.-.;.>.,.'.).!.~.{.].            ",
"  q ^./.(., _.:.<.[.}.|.1.2.3.4.5.6.7.8.9.0.a.b.c.p             ",
"  '.d.e.f.g.h.i.j.k.l.m.n.o.p.q.r.s.t.u.v.w.x.y.p               ",
"  n z.A.B.C.D.E.F.G.H.I.J.K.L.M.N.O.P.Q.R.S.T.                  ",
"  U.> V.W.X.Y.Z.`. +.+++@+#+$+%+&+*+=+-+;+>+                    ",
"  . ,+'+  )+!+~+{+]+^+/+(+_+:+<+ +[+}+|+1+                      ",
"  . 2+.   3+4+5+6+7+8+9+0+a+b+c+d+e+f+g+h+i+                    ",
"    .     j+k+l+m+n+o+p+q+r+s+t+u+v+w+x+y+z+                    ",
"          A+B+C+9+D+E+F+g+a+G+H+I+J+K+L+M+N+O+                  ",
"          P+Q+R+S+T+U+V+W+g+X+Y+Z+`+ @.@+@@@#@                  ",
"          $@%@&@*@=@-@;@>@^+,@'@)@!@~@{@]@^@/@                  ",
"            (@r+_@:@<@(+[@}@|@C+1@2@3@4@5@6@                    ",
"            7@8@9@0@0+a@b@c@d@e@f@g@h@i@j@                      ",
"            k@l@m@g@n@o@p@q@                                    ",
"                                                                ",
"                                                                ",
"                                                                ",
"                                                                ",
"                                                                ",
"                                                                ",
"                                                                "};
