/* XPM */
static char * mozicon50_xpm[] = {
"48 48 847 2",
"  	c None",
". 	c #FFFFFF",
"+ 	c #F3EFE9",
"@ 	c #F8F5F2",
"# 	c #FBFAF8",
"$ 	c #E2D8CC",
"% 	c #D7C8B7",
"& 	c #F4F0EB",
"* 	c #FEFEFE",
"= 	c #FCFBFA",
"- 	c #E9E1D7",
"; 	c #D2C1AD",
"> 	c #C7B199",
", 	c #DED1C3",
"' 	c #FCFCFB",
") 	c #FFFFFE",
"! 	c #F8F5F3",
"~ 	c #E9E1D8",
"{ 	c #D9CBBA",
"] 	c #CEBBA7",
"^ 	c #CCB9A2",
"/ 	c #C7B299",
"( 	c #D1C0AC",
"_ 	c #F4F0EC",
": 	c #F3F0EB",
"< 	c #E6DDD1",
"[ 	c #D5C7B4",
"} 	c #CEBDA8",
"| 	c #CDBBA5",
"1 	c #CDBAA3",
"2 	c #CBB7A1",
"3 	c #CBB7A0",
"4 	c #D7C9B8",
"5 	c #F3F0EE",
"6 	c #FDFEFE",
"7 	c #FEFEFD",
"8 	c #FEFDFD",
"9 	c #FDFDFC",
"0 	c #FDFCFC",
"a 	c #FDFCFB",
"b 	c #FCFAF9",
"c 	c #F8F6F4",
"d 	c #F5F2ED",
"e 	c #F1ECE7",
"f 	c #EDE7DE",
"g 	c #E6DDD2",
"h 	c #DED2C4",
"i 	c #D0BFAA",
"j 	c #CFBEA9",
"k 	c #CFBDA9",
"l 	c #CEBDA7",
"m 	c #CEBBA5",
"n 	c #D4C4B2",
"o 	c #EAE5DF",
"p 	c #F9FAFA",
"q 	c #FBFBFB",
"r 	c #FBFAF9",
"s 	c #FAF9F6",
"t 	c #F6F4F1",
"u 	c #F2EEE8",
"v 	c #EEE8E1",
"w 	c #EAE2D9",
"x 	c #E4DBCF",
"y 	c #DFD5C7",
"z 	c #DCCFC0",
"A 	c #D9CBBB",
"B 	c #D8CAB8",
"C 	c #D7C8B6",
"D 	c #D6C7B6",
"E 	c #D5C6B4",
"F 	c #D4C5B2",
"G 	c #D4C4B1",
"H 	c #D3C4B0",
"I 	c #D2C2AF",
"J 	c #D1C1AC",
"K 	c #CFBDA8",
"L 	c #CFBFAA",
"M 	c #D4C5B4",
"N 	c #E4DED7",
"O 	c #F4F5F6",
"P 	c #F5F5F6",
"Q 	c #F9F9F8",
"R 	c #FCFCFC",
"S 	c #F9F9F9",
"T 	c #F7F7F7",
"U 	c #F8F8F7",
"V 	c #F6F4F2",
"W 	c #ECE5DD",
"X 	c #E2D8CB",
"Y 	c #E1D6C9",
"Z 	c #E0D6C7",
"` 	c #DFD4C6",
" .	c #DED3C4",
"..	c #DDD1C1",
"+.	c #DBCEBE",
"@.	c #DACDBC",
"#.	c #D8CAB9",
"$.	c #D7C9B7",
"%.	c #D3C4B1",
"&.	c #D2C1AE",
"*.	c #D2C3B1",
"=.	c #D6C9B9",
"-.	c #E0D9D1",
";.	c #EFEFEF",
">.	c #F0F1F2",
",.	c #F3F3F3",
"'.	c #ECECEC",
").	c #E0E1E1",
"!.	c #E0E0E0",
"~.	c #E3E1DD",
"{.	c #EAE6E1",
"].	c #E5DCD1",
"^.	c #E5DCD0",
"/.	c #E4DACE",
"(.	c #E3D9CC",
"_.	c #E2D8CA",
":.	c #E0D5C8",
"<.	c #DDD1C2",
"[.	c #DCD0C1",
"}.	c #D6C8B6",
"|.	c #D5C6B3",
"1.	c #D4C5B3",
"2.	c #D6C9BA",
"3.	c #D9D0C4",
"4.	c #E0DBD5",
"5.	c #E9E8E8",
"6.	c #EBECED",
"7.	c #EDEDED",
"8.	c #EEEEEE",
"9.	c #D3D3D3",
"0.	c #C4C4C5",
"a.	c #D6D4D2",
"b.	c #E6E2DC",
"c.	c #EDE5DB",
"d.	c #EBE2D8",
"e.	c #E9E1D6",
"f.	c #E8DFD4",
"g.	c #D9CAB9",
"h.	c #D8C9B7",
"i.	c #D7CAB9",
"j.	c #D7CCBF",
"k.	c #D9D0C5",
"l.	c #DCD6CF",
"m.	c #E0DEDB",
"n.	c #E5E5E6",
"o.	c #E6E7E8",
"p.	c #E9E9E8",
"q.	c #F6F6F7",
"r.	c #FDFFFF",
"s.	c #EBEBEB",
"t.	c #BDBDBD",
"u.	c #B9B9B9",
"v.	c #CAC8C6",
"w.	c #D1CECA",
"x.	c #CECBC6",
"y.	c #D2D0CB",
"z.	c #D7D3CF",
"A.	c #DDD8D3",
"B.	c #E1DBD4",
"C.	c #E3DDD5",
"D.	c #E5DDD3",
"E.	c #E3D9CB",
"F.	c #E3D8CA",
"G.	c #E1D6C8",
"H.	c #E0D5C6",
"I.	c #DFD2C3",
"J.	c #DED1C2",
"K.	c #DDD0C1",
"L.	c #DACFC1",
"M.	c #D9CFC2",
"N.	c #D7D0C5",
"O.	c #D7D2CB",
"P.	c #D9D6D1",
"Q.	c #DBD9D6",
"R.	c #DEDEDD",
"S.	c #E1E1E1",
"T.	c #E4E4E4",
"U.	c #FCFFFF",
"V.	c #FDDDC5",
"W.	c #FEF3EB",
"X.	c #B5B5B5",
"Y.	c #B1B1B0",
"Z.	c #B0B0AF",
"`.	c #ACACAC",
" +	c #B0AFB0",
".+	c #C3C1BF",
"++	c #D4D0CB",
"@+	c #DAD6D0",
"#+	c #E0DAD3",
"$+	c #E2DCD4",
"%+	c #E1DBD3",
"&+	c #DED9D2",
"*+	c #DDD8D2",
"=+	c #DAD5CE",
"-+	c #D6D0C7",
";+	c #D5CFC7",
">+	c #D3CEC7",
",+	c #D1CDC9",
"'+	c #D1CFCC",
")+	c #D2D0CD",
"!+	c #D3D2D0",
"~+	c #D5D4D3",
"{+	c #D5D6D6",
"]+	c #D8D8D8",
"^+	c #D9DADA",
"/+	c #DBDBDB",
"(+	c #E5E5E5",
"_+	c #EFF1F2",
":+	c #F8FBFE",
"<+	c #FEDFC4",
"[+	c #FCAC6B",
"}+	c #FCC194",
"|+	c #FEFDFC",
"1+	c #CFD0CF",
"2+	c #A4A5A6",
"3+	c #9C9EA2",
"4+	c #AAA9A8",
"5+	c #CDCAC5",
"6+	c #E2DCD6",
"7+	c #E7E1D8",
"8+	c #E8E1D7",
"9+	c #E8DFD6",
"0+	c #E7DED4",
"a+	c #E5DDD1",
"b+	c #E7E0D6",
"c+	c #EAE4DB",
"d+	c #E9E3DE",
"e+	c #E5E2DD",
"f+	c #E2DFDD",
"g+	c #E1E0DE",
"h+	c #E1E2E3",
"i+	c #E2E3E5",
"j+	c #E2E4E6",
"k+	c #E4E6E9",
"l+	c #E9EBEE",
"m+	c #EEF0F4",
"n+	c #F2F5FA",
"o+	c #F6F9FE",
"p+	c #FAFEFF",
"q+	c #FDF5ED",
"r+	c #FDDBB6",
"s+	c #FDBD7F",
"t+	c #FBA556",
"u+	c #FB9439",
"v+	c #FAB277",
"w+	c #FCF6F0",
"x+	c #F2F2F2",
"y+	c #9B9B9F",
"z+	c #725C50",
"A+	c #4E3731",
"B+	c #242848",
"C+	c #BBB8BC",
"D+	c #ECE4DC",
"E+	c #F4F1ED",
"F+	c #F8F6F3",
"G+	c #FBFAFB",
"H+	c #FDFEFF",
"I+	c #FEFEFF",
"J+	c #FEFFFF",
"K+	c #FEFCF7",
"L+	c #FEF8EB",
"M+	c #FDF6E4",
"N+	c #FDF4DE",
"O+	c #FDF2D7",
"P+	c #FDEFD1",
"Q+	c #FDEDCB",
"R+	c #FDE9C3",
"S+	c #FCE3B5",
"T+	c #FCDCA6",
"U+	c #FCD596",
"V+	c #FCCD87",
"W+	c #FBC578",
"X+	c #FCBC69",
"Y+	c #FBAF53",
"Z+	c #FBA23B",
"`+	c #FB9D39",
" @	c #FB9734",
".@	c #FB912E",
"+@	c #F9C190",
"@@	c #FAF5F0",
"#@	c #82756C",
"$@	c #644525",
"%@	c #6C4624",
"&@	c #5D535C",
"*@	c #D5D3D5",
"=@	c #FAF7F5",
"-@	c #FFFEFD",
";@	c #FEFDF7",
">@	c #FDF5CC",
",@	c #FCEC9A",
"'@	c #FCE47B",
")@	c #FBDA59",
"!@	c #FBD137",
"~@	c #FACA27",
"{@	c #FAC628",
"]@	c #FAC428",
"^@	c #FAC029",
"/@	c #FABE2A",
"(@	c #FABB2A",
"_@	c #FAB82C",
":@	c #FAB52C",
"<@	c #FAB22D",
"[@	c #FAAF2F",
"}@	c #FAAC2F",
"|@	c #FAA930",
"1@	c #FAA732",
"2@	c #FAA434",
"3@	c #FAA135",
"4@	c #FAA13C",
"5@	c #F7B063",
"6@	c #F5CCA3",
"7@	c #F4EBE4",
"8@	c #FAF6F4",
"9@	c #EFF5F9",
"0@	c #7B7C82",
"a@	c #6C6063",
"b@	c #A09493",
"c@	c #F0EFEF",
"d@	c #FFFEF3",
"e@	c #FDF5B7",
"f@	c #FCE96F",
"g@	c #FBDE2E",
"h@	c #FAD619",
"i@	c #FAD41E",
"j@	c #F9D224",
"k@	c #F9CE29",
"l@	c #F9CC2B",
"m@	c #F9CA2D",
"n@	c #FAC72E",
"o@	c #FAC52D",
"p@	c #FAC12E",
"q@	c #FABF2F",
"r@	c #FABC2F",
"s@	c #FAB932",
"t@	c #F9B735",
"u@	c #F9B437",
"v@	c #F9B33B",
"w@	c #F8B13D",
"x@	c #F8AE41",
"y@	c #F6B04F",
"z@	c #F4BB72",
"A@	c #EFD0AC",
"B@	c #ECE7E1",
"C@	c #EDF1F6",
"D@	c #F1EFEE",
"E@	c #FAF8F7",
"F@	c #EDF4F9",
"G@	c #EEF5F9",
"H@	c #EFF4F9",
"I@	c #B1B0AD",
"J@	c #F9F5EE",
"K@	c #FFFFF8",
"L@	c #FEF9CB",
"M@	c #FCEE6B",
"N@	c #FBE646",
"O@	c #FBE44A",
"P@	c #FBE34E",
"Q@	c #FBE04F",
"R@	c #FBDD4C",
"S@	c #F3D75A",
"T@	c #EAD16B",
"U@	c #E8CC68",
"V@	c #E7C967",
"W@	c #E6C76A",
"X@	c #E6C76B",
"Y@	c #E8C56B",
"Z@	c #EAC569",
"`@	c #EBC46A",
" #	c #E9C67A",
".#	c #E7C990",
"+#	c #E4CEA4",
"@#	c #E2D4BA",
"##	c #E1DAD0",
"$#	c #E1E3E5",
"%#	c #E2E8EF",
"&#	c #E4E9EF",
"*#	c #E8EBED",
"=#	c #EDECEC",
"-#	c #F4EFEA",
";#	c #FCF9F7",
">#	c #FCFDFF",
",#	c #ECF2F7",
"'#	c #EDF5F9",
")#	c #EEF3FA",
"!#	c #EDF6F8",
"~#	c #F0F0F0",
"{#	c #D7D5D2",
"]#	c #F9F5F1",
"^#	c #FDFDF8",
"/#	c #FEFACD",
"(#	c #FCF295",
"_#	c #FDF3C3",
":#	c #FDF8F6",
"<#	c #FDF6F6",
"[#	c #FDF6F4",
"}#	c #FDF6F2",
"|#	c #FEF8EF",
"1#	c #FFF7DE",
"2#	c #FBF1CB",
"3#	c #F1E8C4",
"4#	c #E7E0C7",
"5#	c #DEDCD7",
"6#	c #D8DBE5",
"7#	c #D6D9E3",
"8#	c #D4D7DF",
"9#	c #D3D6DC",
"0#	c #D3D6DD",
"a#	c #D5D8DE",
"b#	c #D8DADF",
"c#	c #DADCE0",
"d#	c #DDDFE1",
"e#	c #E1E1E2",
"f#	c #E6E6E5",
"g#	c #EBEDEE",
"h#	c #F0EFEE",
"i#	c #F7F4F1",
"j#	c #FBFDFF",
"k#	c #F2F7FC",
"l#	c #EAF2F8",
"m#	c #EBF2F8",
"n#	c #EBF3F8",
"o#	c #ECF4F7",
"p#	c #EDF4FA",
"q#	c #EFF5F8",
"r#	c #F5F3EF",
"s#	c #FAF8F8",
"t#	c #FEFDE1",
"u#	c #FFFDE8",
"v#	c #F7E7D5",
"w#	c #F9DFB7",
"x#	c #F9DBAA",
"y#	c #F8D8A4",
"z#	c #F8D8A8",
"A#	c #F9DCB2",
"B#	c #FAE2C0",
"C#	c #FBE9CF",
"D#	c #FDF0DB",
"E#	c #FFF4E3",
"F#	c #FFF8E9",
"G#	c #FFF9ED",
"H#	c #F9F5EB",
"I#	c #F2EEE5",
"J#	c #EDE9DE",
"K#	c #E9E7E0",
"L#	c #E7E5E0",
"M#	c #E8E6E1",
"N#	c #EAE7E3",
"O#	c #EBE6DF",
"P#	c #EEE5DA",
"Q#	c #F3E7D5",
"R#	c #F8E8D2",
"S#	c #F7E3CA",
"T#	c #F2F3F2",
"U#	c #E8F2F9",
"V#	c #E8F1F7",
"W#	c #EAF3F8",
"X#	c #EBF3F9",
"Y#	c #ECF3F7",
"Z#	c #EEF4FA",
"`#	c #F9F7F4",
" $	c #FCFBFC",
".$	c #FEFDED",
"+$	c #EFD09F",
"@$	c #F7D9A6",
"#$	c #F9DBA7",
"$$	c #F8DBA6",
"%$	c #F8DAA5",
"&$	c #F8D8A2",
"*$	c #F8D59D",
"=$	c #F8D79F",
"-$	c #F8D9A3",
";$	c #F9DCA7",
">$	c #FAE0AF",
",$	c #FAE5B9",
"'$	c #FBEAC3",
")$	c #FDEFCB",
"!$	c #FDF2D2",
"~$	c #FFF7DA",
"{$	c #FFFCE0",
"]$	c #FFFAE1",
"^$	c #FDEAC6",
"/$	c #FADEB2",
"($	c #FADBB0",
"_$	c #F9D8A8",
":$	c #F8D4A0",
"<$	c #F6CB8F",
"[$	c #ECC38C",
"}$	c #E9E5DD",
"|$	c #E8F2FB",
"1$	c #E8F1F8",
"2$	c #EAF1F7",
"3$	c #EBF4F8",
"4$	c #F0F6FA",
"5$	c #FDFDFD",
"6$	c #FBF9F7",
"7$	c #FFFFFB",
"8$	c #F0D4A3",
"9$	c #F6DBAB",
"0$	c #F9E0AE",
"a$	c #F9DFAD",
"b$	c #F9DEAC",
"c$	c #F9DDAA",
"d$	c #F9DCA9",
"e$	c #F8DCA9",
"f$	c #FAE1B1",
"g$	c #FAE5B7",
"h$	c #FAE7BA",
"i$	c #FBEABE",
"j$	c #FBEDC2",
"k$	c #FCF0C7",
"l$	c #FDF4CE",
"m$	c #FBF1D5",
"n$	c #EEC1B3",
"o$	c #DF8C80",
"p$	c #EAB0A0",
"q$	c #F9E0C4",
"r$	c #F7D096",
"s$	c #F7CE92",
"t$	c #F6CD91",
"u$	c #F6CC90",
"v$	c #EEC994",
"w$	c #E9E1D0",
"x$	c #E7F3FC",
"y$	c #EAF1F8",
"z$	c #E9F1F7",
"A$	c #EBF2F9",
"B$	c #ECF3F8",
"C$	c #F1D9AB",
"D$	c #F5DDAF",
"E$	c #FAE4B4",
"F$	c #F9E3B3",
"G$	c #F9E2B2",
"H$	c #F9E1B1",
"I$	c #F9E0AF",
"J$	c #F9DFAE",
"K$	c #F9E0B0",
"L$	c #FBEEC6",
"M$	c #FCF1C9",
"N$	c #FCF4CD",
"O$	c #FDF7D4",
"P$	c #FDF8DF",
"Q$	c #E8AFAC",
"R$	c #CA403A",
"S$	c #D14A2E",
"T$	c #D85C32",
"U$	c #E6A091",
"V$	c #F8D9AD",
"W$	c #F7D39B",
"X$	c #F7D399",
"Y$	c #F7D197",
"Z$	c #F1CC96",
"`$	c #EBDDC6",
" %	c #E7F2FD",
".%	c #E8F0F8",
"+%	c #EAF2F7",
"@%	c #EAF2F9",
"#%	c #ECF2F8",
"$%	c #EBF3F7",
"%%	c #ECF4F8",
"&%	c #F4E0B2",
"*%	c #FAE8BB",
"=%	c #FAE6B8",
"-%	c #FAE5B6",
";%	c #FAE4B5",
">%	c #FAE3B5",
",%	c #FBEBC1",
"'%	c #FDF8D4",
")%	c #FDFAD9",
"!%	c #FEFEDF",
"~%	c #F7E3D3",
"{%	c #CD4C47",
"]%	c #CD3E24",
"^%	c #DD5F24",
"/%	c #EB7C1E",
"(%	c #E77422",
"_%	c #F5D4C6",
":%	c #FAD9A3",
"<%	c #F8D7A1",
"[%	c #F3D09A",
"}%	c #ECDEC2",
"|%	c #E8F8FF",
"1%	c #E8F3FA",
"2%	c #EDF3F8",
"3%	c #EEF5F8",
"4%	c #F3E1B6",
"5%	c #FBEABF",
"6%	c #FAE9BE",
"7%	c #FAE9BD",
"8%	c #FAE8BC",
"9%	c #FBE7BB",
"0%	c #F4C07C",
"a%	c #FFFFE0",
"b%	c #F4D5C5",
"c%	c #C8372F",
"d%	c #D14726",
"e%	c #DE6224",
"f%	c #E87620",
"g%	c #E46A1A",
"h%	c #F0D7C3",
"i%	c #E1B78D",
"j%	c #ECC596",
"k%	c #EFCA99",
"l%	c #E2AE85",
"m%	c #D29581",
"n%	c #CE9AA3",
"o%	c #E1CFD6",
"p%	c #E8F0F7",
"q%	c #E8F2F8",
"r%	c #E8F2F7",
"s%	c #EFF4F8",
"t%	c #F3E2B8",
"u%	c #FCEFC6",
"v%	c #FCEEC5",
"w%	c #FCECC3",
"x%	c #FCECC2",
"y%	c #FBECC2",
"z%	c #F6C98A",
"A%	c #F6C484",
"B%	c #F5C483",
"C%	c #F4D0B0",
"D%	c #D76F66",
"E%	c #CD3C23",
"F%	c #D75525",
"G%	c #DC5D22",
"H%	c #DD6432",
"I%	c #D2AC9F",
"J%	c #66070A",
"K%	c #70080B",
"L%	c #7D0C10",
"M%	c #8A1115",
"N%	c #97161A",
"O%	c #A3191E",
"P%	c #B53138",
"Q%	c #DBBAC1",
"R%	c #E9F2F9",
"S%	c #E7F1F8",
"T%	c #EAF3F9",
"U%	c #F2E3BD",
"V%	c #FCF2CC",
"W%	c #FDF2CB",
"X%	c #FCF2CA",
"Y%	c #FCF0C8",
"Z%	c #F8D39B",
"`%	c #F7CB8E",
" &	c #F7CD91",
".&	c #F6CD92",
"+&	c #F6CE92",
"@&	c #F1C9B9",
"#&	c #D25A4B",
"$&	c #D3563E",
"%&	c #D6583A",
"&&	c #CFADA2",
"*&	c #4E1010",
"=&	c #580709",
"-&	c #650C0E",
";&	c #720F12",
">&	c #7F1518",
",&	c #8D1D1F",
"'&	c #9D4245",
")&	c #BEADB3",
"!&	c #E3EFF6",
"~&	c #E9F2F7",
"{&	c #EEF5FA",
"]&	c #EFF6F9",
"^&	c #EEF4F8",
"/&	c #F2E7C1",
"(&	c #FAF3CE",
"_&	c #FDF6D2",
":&	c #FDF5D1",
"<&	c #FDF5CF",
"[&	c #F8D199",
"}&	c #F8D49D",
"|&	c #F8D59F",
"1&	c #F8D6A1",
"2&	c #F8D7A2",
"3&	c #F9D9A5",
"4&	c #FBE3B7",
"5&	c #FBEBCF",
"6&	c #F6E0D0",
"7&	c #EFE6D7",
"8&	c #8F8174",
"9&	c #402C28",
"0&	c #391819",
"a&	c #410F12",
"b&	c #531215",
"c&	c #692323",
"d&	c #7E3836",
"e&	c #96585A",
"f&	c #C69EA5",
"g&	c #E3E1E9",
"h&	c #E7F0F8",
"i&	c #ECF4F9",
"j&	c #F4ECC7",
"k&	c #FAF4D1",
"l&	c #FEFAD8",
"m&	c #FDFAD7",
"n&	c #FDF8D5",
"o&	c #F8D9A4",
"p&	c #F9DAA5",
"q&	c #F9DBA8",
"r&	c #F9DDAC",
"s&	c #FAE1B0",
"t&	c #FAE4B3",
"u&	c #F7E3B3",
"v&	c #DCC79E",
"w&	c #CDB695",
"x&	c #AB947C",
"y&	c #826759",
"z&	c #6A443C",
"A&	c #6C3632",
"B&	c #762E2C",
"C&	c #832526",
"D&	c #95262A",
"E&	c #B65359",
"F&	c #DCC5CB",
"G&	c #E7F0F7",
"H&	c #F5EECB",
"I&	c #F8F4D2",
"J&	c #FEFEDE",
"K&	c #FEFDDD",
"L&	c #FCF3CD",
"M&	c #FAE2B1",
"N&	c #FAE3B2",
"O&	c #FAE7B9",
"P&	c #FBE8BB",
"Q&	c #FBE9BD",
"R&	c #FBEBBF",
"S&	c #FBECC1",
"T&	c #FCEEC3",
"U&	c #FDF0C5",
"V&	c #F0E2BC",
"W&	c #E3D5B3",
"X&	c #D9CBAC",
"Y&	c #CDBEA1",
"Z&	c #B8A38B",
"`&	c #AD8D7A",
" *	c #A87A68",
".*	c #B28A86",
"+*	c #D5D5DC",
"@*	c #E6F3FA",
"#*	c #E6F0F7",
"$*	c #E7F1F7",
"%*	c #E9F1F8",
"&*	c #EEF4F9",
"**	c #F7F2D0",
"=*	c #FFFFDF",
"-*	c #FEFBD8",
";*	c #FBE7BA",
">*	c #FCEDC2",
",*	c #FBEEC5",
"'*	c #FDF1C9",
")*	c #FCF0C9",
"!*	c #FAEFC8",
"~*	c #FAEFC7",
"{*	c #F9EEC7",
"]*	c #F8EDC6",
"^*	c #F2E7BF",
"/*	c #EDE2BF",
"(*	c #E9E0BE",
"_*	c #E4DCBF",
":*	c #DFD9C0",
"<*	c #DCE0DB",
"[*	c #E0EDF5",
"}*	c #E5F0F7",
"|*	c #E6EFF7",
"1*	c #E9F2F8",
"2*	c #EDF3F9",
"3*	c #F6EFCC",
"4*	c #FFFFDE",
"5*	c #FCF3CB",
"6*	c #FBF0C9",
"7*	c #F8EEC7",
"8*	c #F9EDC6",
"9*	c #F7ECC5",
"0*	c #F7EFCB",
"a*	c #F4EFCE",
"b*	c #F1EDD2",
"c*	c #EBEBD7",
"d*	c #E6EAE1",
"e*	c #E5ECE9",
"f*	c #E7EEEB",
"g*	c #E8EFEC",
"h*	c #E8F0EF",
"i*	c #E8F0F1",
"j*	c #E5F0F5",
"k*	c #E4EFF7",
"l*	c #E5EFF7",
"m*	c #E5EFF6",
"n*	c #E6EFF6",
"o*	c #E6F1F8",
"p*	c #F5EDCA",
"q*	c #FAF2CE",
"r*	c #F7ECC7",
"s*	c #F7EBC5",
"t*	c #F5EAC5",
"u*	c #F4EAC6",
"v*	c #F5EBC8",
"w*	c #F4EDCA",
"x*	c #F1EDCF",
"y*	c #EDECD2",
"z*	c #E6E9D4",
"A*	c #DBE3D8",
"B*	c #C8DBDD",
"C*	c #C1D8E5",
"D*	c #C6DCE7",
"E*	c #CBDFE9",
"F*	c #D0E2EB",
"G*	c #D3E4EE",
"H*	c #D7E7F2",
"I*	c #DCEAF4",
"J*	c #E1EDF6",
"K*	c #E0ECF6",
"L*	c #E2EEF6",
"M*	c #E4EEF6",
"N*	c #E4EEF7",
"O*	c #F5ECC9",
"P*	c #F6EFCD",
"Q*	c #F7F1CF",
"R*	c #F9F3D2",
"S*	c #F9F4D1",
"T*	c #C8DEEE",
"U*	c #CDE1EF",
"V*	c #D3E4F1",
"W*	c #D9E8F3",
"X*	c #DEEBF5",
"Y*	c #E1ECF5",
"Z*	c #E2EDF5",
"`*	c #E3EEF6",
" =	c #E7F0F6",
".=	c #E7F1F9",
"+=	c #ECF5F8",
"@=	c #DFECF6",
"#=	c #DBE9F5",
"$=	c #E0ECF5",
"%=	c #E2EDF6",
"&=	c #E3EDF5",
"*=	c #E5F0F6",
"==	c #E2ECF6",
"-=	c #E1EEF7",
";=	c #E3ECF5",
">=	c #E4F0F7",
",=	c #E5EEF7",
"'=	c #E7F0F5",
")=	c #E5EFF8",
"!=	c #E7EFF7",
"~=	c #E9F3F7",
"{=	c #E9F3F8",
"                                                                                                ",
"                                                                                                ",
"                                                                                                ",
"                                                                                                ",
"                                                                                      . .       ",
"                                                                                  . . + @       ",
"                                                                              . . # $ % &       ",
"                                                                      * . . . = - ; > , '       ",
"                                                              ) . . . . ! ~ { ] ^ / ( _ .       ",
"                                      * . * . * . . . . . . . . ' : < [ } | 1 2 3 4 5 6         ",
"                        . . . . . * * 7 8 9 0 a b c d e f g h % ( i j k l | m n o p q *         ",
"                  . . * * 7 ' r s t u v w x y z A B C D E F G H I J i K L M N O P Q *           ",
"              . R S T U V : W g X Y Z `  ., ..z +.@.{ #.$.E F %.&.J *.=.-.;.>.,.S .             ",
"          . q '.).!.~.{.w < ].^./.(._.:.` h <.[.+.@.{ #.}.|.G 1.2.3.4.5.6.7.,.q .               ",
"        . 8.9.0.a.b.c.d.e.f.g ^./.(._.:.` h <.[.+.@.g.h.i.j.k.l.m.n.o.p.;.q.r.. *               ",
"      . s.t.u.v.w.x.y.z.A.B.C.D./.E.F.G.H.I.J.K.L.M.N.O.P.Q.R.).S.T.'.q.U.. V.W..               ",
"    . 8.X.Y.Z.`. +.+++@+#+$+%+&+*+=+-+-+;+>+,+'+)+!+~+{+]+^+/+(+_+:+U.. <+[+}+|+                ",
"    q 1+2+3+4+5+6+7+8+9+0+a+].b+c+d+e+f+g+S.h+i+j+k+l+m+n+o+p+U.q+r+s+t+u+v+w+.                 ",
"    x+y+z+A+B+C+D+f u E+F+G+H+I+J+K+L+M+N+O+P+Q+R+S+T+U+V+W+X+Y+Z+`+ @.@+@@@J+                  ",
"  . o.#@$@%@&@*@=@) -@;@>@,@'@)@!@~@{@]@^@/@(@_@:@<@[@}@|@1@2@3@4@5@6@7@8@*     9@              ",
"  . T.0@a@b@c@. d@e@f@g@h@i@j@k@l@m@n@o@p@q@r@s@t@u@v@w@x@y@z@A@B@C@D@E@I+  F@G@H@              ",
"  . (+I@J@-@K@L@M@N@O@P@Q@R@S@T@U@V@W@X@Y@Z@`@ #.#+#@###$#%#&#*#=#-#;#>#  ,#'#)#!#9@            ",
"  . ~#{#]#^#/#(#_#:#<#[#}#|#1#2#3#4#5#6#7#8#9#0#a#b#c#d#e#f#g#h#i#j#k#l#m#n#o#p#G@q#            ",
"  * q r#s#t#u#v#w#x#y#y#z#A#B#C#D#E#F#G#H#I#J#K#L#M#N#O#P#Q#R#S#T#U#V#l#W#X#Y#F@Z#G@9@          ",
"    8 `# $.$  +$@$#$$$%$&$*$=$-$;$>$,$'$)$!$~${$]$^$/$($_$:$<$[$}$|$1$2$l#l#3$,#p#G@q#4$        ",
"    5$6$* 7$  8$9$0$a$b$c$d$e$f$g$h$i$j$k$l$m$n$o$p$q$r$s$t$u$v$w$x$V#y$z$X#A$B$B$Z#9@9@        ",
"    * 5$.     C$D$E$F$G$H$I$J$K$i$L$M$N$O$P$Q$R$S$T$U$V$W$X$Y$Z$`$ %.%V#+%l#@%#%$%%%F@q#9@      ",
"      * .       &%*%h$=%-%;%E$G$>%,%'%)%!%~%{%]%^%/%(%_%:%<%*$[%}%|%1%1$2$2$X#m#B$2%Z#G@3%      ",
"      .         4%,%5%6%7%8%h$9%<%0%=%a%a%b%c%d%e%f%g%h%i%j%k%l%m%n%o%p%q%r%l#A$m#$%%%'#q#s%    ",
"                t%k$u%v%w%x%y%F$z%A%B%0$'%C%D%E%F%G%H%I%J%K%L%M%N%O%P%Q%R%S%m#T%X#B$2%Z#G@q#4$  ",
"                U%V%W%X%M$Y%,%Z%`% &s$.&+&y#@&#&$&%&&&*&=&-&;&>&,&'&)&!&q%V#~&l#l#l#$%B${&]&^&  ",
"                /&(&_&:&<&V%a$[&Z%}&|&1&2&3&4&5&6&7&8&9&0&a&b&c&d&e&f&g&h&1$1$2$l#X#B$o#i&'#q#4$",
"                j&k&l&m&n&i$o&p&q&d$r&a$I$s&s&t&u&v&w&x&y&z&A&B&C&D&E&F&G&1$p%~&l#l#A$#%%%Z#9@s%",
"                H&I&J&K&L&M&s&N&E$-%=%O&P&Q&R&S&T&U&V&W&X&Y&Z&`& *.*+*@*#*p%$*%*+%l#A$m#Y#F@&*9@",
"                  **=*-*R&;*Q&R&S&>*,*k$'*)*!*~*{*]*~*~*^*/*(*_*:*<*[*}*|*G&V#.%~&1*l#A$n#%%2*!#",
"                  3*4*5*u%'*M$6*!*7*8*]*9*]*~*0*a*b*c*d*e*f*g*h*i*j*k*l*m*n*o*V#1$r%l#l#n#Y#F@F@",
"                  p*q*r*s*t*u*v*w*x*y*z*A*B*C*D*E*F*G*H*I*J*K*J*L*M*M*N*m*#*#*$*q%1*2$l#A$n#B$p#",
"                  O*P*Q*R*S*                      T*U*V*W*X*J*Y*Z*`*`*N*l*m* =.=p%S%~&2$l#A$#%+=",
"                                  @=                      #=$=J*%=Z*&=`*N**=|*G&S%1$z$~&l#@%X#B$",
"                                  ==-=;=M*l*>=l*                    Z*`*,=k*'=)=!=.%1$~=        ",
"                                        m*l*l*|*p%.%V#                                          ",
"                                              m*p%.%S%z$@%{=                                    ",
"                                                      ~&m#@%B$Z#H@q#G@                          ",
"                                                                                                ",
"                                                                                                ",
"                                                                                                ",
"                                                                                                ",
"                                                                                                "};
